P2
# Generated by OpenCV 3.4.2
64 64
255
   0   0   0   0  10  22  62  60 135 136  90 133 135 136 136 135 135 136 135 135 135 135 135 135 135 135  90  46  11  11  11  11  11  11  11  11  11  11  11  11  11  11  11  11  11  12  13  13  13  14  14  14  15  15  15  16  83  83  43  39   0   0   0   0
   0   0   0  11  30  61 151 195 222 253 161 141 134 179 179 179 179 179 179 179 180 135 180 179 134 180  89 135   1   1   1   1   1   1   1   1   1   1   1   1   1   1   1   2   2   2   2   2  45   2   3   3  46 133 177 176 143  72  84 119  38   0   0   0
   0   0  12  32  89 194 187 141  89 180 134  89  89 179 179 179 179 179 179 185 224 142 201 200 100 185 190 255 180 180 180 180 180 180 180 180 180 180 180 180 180 135  90  90  45  45  90  90 128  45   1   1   0   1   1   1  44 131 144 137 117  38   0   0
   0  12  33  91 164 182  89  89  89 180 180 134 134 179 179 179 179 179 179 179 179  64 201 185 142 200 185 180  45   0   0   0   0   0   0   0   0   0   0   0   0   0   1  45  90  45  45  90  64   1   1   1   1   1   1   0   1  45 133 144 135 116  38   0
   0  29  69 194 187 185 134 134  89 135 180 179 134 135 135 135 180 179 179 179 179 134 180 180 180 179 180 180  90   7   7   7   7   7   7   7   7   7   7   7  45   7   7   7   7   7   7   7  45  45  45  46   1   1   0   1   2   1  45 133 148 168 111   0
  14  73 154 216 100 135 179 179 134  90 136 137  90 101 161 196 250 220 251 251 221 222 222 253 253 223 223 224 185 179 179 179 179 179 179 179 179 179 179 179 201 179 178 178 178 178 177 177 161 103  93 136  43  45   1   2   1   0   1  46 134 186 160  37
  39  79 160 137 134  90 134 179 179  93  91  97 178 188 160 102 135  90 180 135  45  45  45 135 135  46  46  46  12  12  12  12  12  12  12  12  12  12  12  12  46  12  12  12  47  10  10  46  91  99 155 188 103 134  44   1   0   1   2  45  64 112 170 104
  62  69 176  64 179 134  90 134 137 104 180 149 151  64 107 102 101 142 185  63  45  45  45  64  64  45  45  45  45  45  45  45  45  45  45  45  45  45  45  45  45  45  45  45 101  45  45 101  99  92 129 101 157 192 102  42   1   2   1  90 142 106 173 123
  95  52 135   1 180 179 135  47 103 176 183  97 125  72 141 136 136 180 181  47  15  15  15  47  46  46  11  12  13  14  14  14  14  14  14  14  14  14  14  14  14  14  14  14  47  15  15  48  49  52 132  83 135 162 139 100  43   1   1  45 134  48 146 124
 134 137 144   1 135 179 135  68 178 183 106  86 155 182 241 244 245 245 245 215 172 171 168 174 133 117  72  73  83 140 172 166 166 166 166 166 172 171 171 164 164 165 166 166 167 167 167 167 166 165 133  68 113 130 102  67 130  45   1   1  89  62 164 158
  91 118 149   1  90 180  48 137 145  96  86 197 240 243 247 248 249 219 219 249 159 126  75 133 167 154 109 134 147 122 131 139 173 174 174 178 164 126 117  70  69  80 141 172 173 173 173 172 172 171 170 169 146 159 126 103 145 132   1   1 135  59 150 134
  66  51 145   1 135 135   6 165 105 123 155 240 244 248 250 251 222 183 198 195 112 144 146  97 154 180 148 126 149 123 133 123 143 177 133 129 114 142 165 124 136 150 126  82 143 177 177 176 176 175 174 173 172 189 171 160  74 173   1   1 180  37 130 120
  65  41 145   1 134  45  66 178  58  75 183 243 248 251 253 224 185 180 162 110 121 161 194 171 196 207 118 119 142 129 122 144 189 136  82 145 147 124 200 215 142 154 131 119 134 149 179 180 179 178 178 177 175 146 142 162  91 137  44   1 180  36 140 119
  79  98 171  90  64   1 141 183 100 142 241 247 250 253 225  63   0  63 117 132 135 174 189 209 228 240 166 164 151 142 136 123 103  44 118 165 197 172 202 215 118 140 130 138 131 124 104  44  45 135 179 178 178 178 196 172  92  63 134   1 180  36 142 118
  65  39 145   1  45   1 182 186  96 138 242 248 251 224 142   0   0 141 119 145  95 160 216 237 240 243 165 167 169 161 120 100 106 101 166 181 196 213 230 240 157 144 132 129 123 144 150  45   0  45 134 179 179 179 198 169  91  45 178   1 180  36 142 117
  65  39 145   2 135   2 176 163  56 138 244 248 252 225  63   0   0 184 126 156 180 205 237 240 241 245 169 171 173 173 169 142 147 142 200 198 219 233 235 239 159 162 156 149 141 124 125 107  44  45 135 180 180 180 199 152  13   3 178   1 180  36 141 117
  66  40 146   2 180   2 175 162  32  55 189 178 176 180   0   0   0 178  87 117 201 218 244 243 245 250 177 178 179 135  86  94  92 129 180 219 234 234 235 240 163 165 169 164 126 107 104 143  44   0   0   4  45  91 155 146  14   3 178   1 180  36 140 116
  66  40 146   1 134   2 175 167  95  55 166 172 176 180   0   0   0 178  88 135 164 123 165 165 169 177   8  13  16  17  48 103  85 176 217 237 237 237 238 244 170 173 175 173 181 145 122 149  45   0   0   4   8  14 155 172  48   4 179   2 180  36 140 116
  67  41 146   1  89   2 175 167  96  55 166 172 176 180  63 142 179 224  95 134 146 119 164 167 171 178  13  15  16  17  22  78 142 179 162 160 159 160 164 175   9  17  20  21  68  71 102 114   2   0   0   4   8  14 154 172  48   4 179   2 179  36 140 115
  68  41 145   1  89   2 175 160  32  33 166 172 181 224 171 124  44 185  93 160 155 137 157 170 173 179  17  29  47  59  61  89  87 146 160 154 158 162 166 176  15  19  21  30  69 126  83 129   1   0   0   4   8  14 147 147  17   4 179   1 134  36 139 114
  69  43 144  45  89   2 174 160  31  33 166 177 176 192 128 140 133 210 131 132 132 149 144 172 175 140  46  65 105 141 142 175 110 164 142 117 149 158 170 178  20  21  21  46  83 159 116 116   1   0   0   4   8  14 147 147  18   4 178   1  45  37 137 113
  70  44 145  90 134  46 174 159  31  33 171 183 154 154 119  66 142 195  66  56  85 126 139 166 140  80 111 132 150  95 132 186  66 103 123 122 136 148 165 135  21  20  32  61  59 108 146  59   0   0   0   4   8  14 147 148  18   5 134   4  45  36 136 112
  70  44 146  46 133  90 172 158  31  55 165 147 116 100 145 149 194 169 109 111 118 124 130 158  74  91 136 113 166 142 227 212 163 142 110 103 122 135 150  86  20  27  50  78  93 115 134 134 134  45   0   4   8  14 147 148  19   7  90   4 135  34 135 112
  70  45 147   1  44  46 172 157  30  54 139 146 102 122 185 215 233 169 164 167 160 147 130 147  82 128 141 186 230 212 242 186 164 166 165 142 128 135 131 114  31  51 107 168 160 184 116  67  79 145 134  45   8  14 148 149  21   8 134   1 180  34 135 111
  70  45 154 135 180 135 179 155  30  35  83 121 153 185 224 236 237 159 161 164 169 160 155 143 106 111 189 236 240 239 240 212 163 164 167 169 151 154 141 140  77 104 190 204 104 159 130 133 152 125  78 104  46  16 147 149  22   7 178   1 179  34 134 111
  70  45 147   1   0   4 179 179  55  52 105  83 160 213 237 234 236 161 164 168 172 174 143 110 130 170 232 240 238 238 240 244 164 166 167 171 169 161 135 106 171 177 196 208 131 154 143 131 157 133 112 112  10  18 146 147  22   7 178   1 179  34 134 111
  70  45 147   1   0   4 173 155  55 117 124  60 128 148 164 208 242 178 173 176 178 136  87 142  95 147 212 239 238 239 242 246 168 169 171 173 175 164 152  73 149 193 210 216 185 155 114 107 140 143 137 119  37  18 145 146  23   7 177   1 179  33 133 110
  70  45 147   1   0   4 173 155  31  87 175 137 105 146 157 158 167  91  17  21  21  24  77 151 133 230 242 240 240 242 245 250 173 174 175 177 178 174 199 134 137 204 249 246 247 178 174 170 149 148 147 122  72  17 145 146  24   7 177  45 200  56 133 110
  70  45 147   1  45  45 195 162  32  77 135  56  97 143 161 162 170  51  24  25  23  30  78 137 110 172 163 169 212 246 250 255 180 180 136  48  17  11 108  64 109 154 216 244 244 174 168 170 169 164 134 116 100 111 152 146  24   7 177   0 179  34 133 110
  70  63 200 180 201 180 250 206  56  61 153 145 125 131 165 167 174  22  23  24  22  58 121 142  59 161 163 162 163 167 173 180   9  13  17  19  19  15 116  86 136 168 213 240 240 213 166 169 173 172 187 197 123 159 152 146  25   7 177   0 179  33 133 110
 152 185 232 180 201 180 250 207  56  55 127 141 124 124 157 169 177  21  21  19  14  47 148 182  93 143 165 163 164 169 174 180  14  16  18  20  18  30 126  96 151 229 241 241 242 249 174 176 177 179 163 171  57 158 146 147  25   7 182 135 224  56 132 110
 152 185 232 180 201 180 219 163  34  34  69 116 135 132 158 173 178  58  35  35  40  53 105 153 110 111 167 165 166 171 175 181  17  18  19  19  15  67 141 180 154 169 162 164 168 179  11  16  17  35  97 166  99 166 146 147  25   7 176   0 179  33 132 110
  83 142 232 179 184 179 250 208  56  35 130 125 116 101 137 134 145 115  78  88  80  71  82 132  99  94 152 169 169 172 176 181  18  19  19  16  35 113 130 137 136 169 164 166 171 180  16  17  15  51 117 186 128 135 146 147  25   7 176   0 179  33 132 110
  82 142 199  45  63  89 196 182  57  36 163 140 114 123 108 116  86 100 141 211 198 158 150 148 138 123 127 158 173 174 177 181  19  18  15  33  97 125 140 163 209 180 168 169 173 181  17  16  24  80 133 141 131  69 145 153 137 135 183   0 179  56 160 119
  82 142 232 180 201 180 220 165  35  36 164 171 139 188 116 134 147 162 159 201 206 136 155 152 151 150 145 158 163 166 176 135  13  24  58 109 157 106 138 123 166 164 169 172 175 180  16  30  68  96 133  69  79  18 145 153 137 180 253 180 254 140 142 109
  82 141 231 179 184 179 250 209  57  36 164 171 181 171 129 151 182 193 221 230 234 154 155 158 152 147 146 152 146 192 201 135 107 120 151 131 177 159 180 165 181 154 143 183 187 155  81  97 119  73 111 116  47  17 144 146  24   8 177   1 134  45 135  99
  81 141 231 179 179 179 250 209  57  36 164 171 180 133 154 122 162 210 229 229 233 154 157 162 165 159 146 136  98 180 155 168 113 101 172 155 197 163 137 149 165 172 121 151 148  74  72  77 151 110 111 163 134 176 202 160  83  91 146  16  59  68 126  81
  81 140 231 179 179 179 250 210  57  36 164 171 179 122 177 200 195 225 230 230 235 160 164 168 172 174 175 137  82 198 180 241 204 190 218 151 168 166 167 185 141 132  78 143 104  81 117 127 143 154 169 212 167 167 208 181 189 127  86  43  54  62  98  69
  80 141 231 179 179 179 251 211  58  36 164 171 173  79 132 166 113 203 234 236 242 174 176 179 180 180 145 117 148 229 208 233 230 233 240 166 167 168 167 150 106 103 137 172 111 106 126 177 153 189 167 180 178 182 237 228 187  65  54  54  65  79 114  85
  80 141 231 179 185 179 251 212  58  36 164 171 174  76 148 146 105 146 154 158 170  13  22  26  27  29  54  78 183 232 244 241 241 241 243 166 167 170 169 131 120  90 155  78  81 135 179 181 125  74  24  22  74 181 229 184 100  66  62  92 177 181 186 156
  79 140 231 179 225 179 252 212  58  36 164 171 174  85 156 158 135 132 156 163 174  23  25  27  30  52 113 111 144 201 243 241 241 241 244 168 169 172 172 178 198  83 145  60 173 168 151  65  23  24  21  74 180 229 184 100  65  63  94 177 216 162 195 161
  65  59 198 179 254 179 252 213  59  36 164 171 175 146 126 134 135 128 148 165 177  26  26  31  54  64 118 105  73 152 213 244 243 244 247 175 176 177 178 186 208  79 143  58 164 150  71  24  24  21  74 181 229 184  99  66  64  94 176 216 216 160 203 166
 150 184 230 179 254 179 252 213  60  36 163 171 175 178  80 114 139 135 150 163 175  35  45  65 101  50 101 124 134 118 155 166 166 168 175   5  11  14  19  53 156 112 166 143 172  68  24  24  21  74 181 229 183  99  66  65  94 176 216 217 223 164 210 171
 149 183 230 179 254 179 189 189  99  60 163 171 175 178 144 129 122 119 146 129 181  78  99 109 155 101  77  69 133  72 142 163 167 169 176  11  13  16  34  79 173 142 146 133 131  25  24  21  74 181 229 183  98  66  66  95 176 216 217 224 228 166 215 175
  77 140 230 179 254 184 143 186  94  62 162 170 174 178 179 145 124 141 122 114 196 162 184 130 128  92  31  80 144 130 124 152 165 172 177  14  21  37  53  64 124 183 206 183  83  24  21  74 181 229 183  98  66  67  96 176 216 217 224 229 231 169 222 179
  77 140 230 179 254 224 136 182 130 135 132 168 173 177 179 179 102 159 134 102 124 100 118 119 128  46   2 102 149 153 133 135 165 176 140  47  56  82  59  91  93 166 150 159  26  20  75 182 229 182  97  66  67  96 176 215 217 224 229 232 234 173 228 182
  77 140 230 179 254 253 178 182 100  87  69 167 172 176 178 179  90  44 145 192 177 141 109  53  45   4   3  44 113 141 118 110 149 139 101  55  56 136 103 109 115 193 154 178  22  75 183 229 182  97  66  68  97 176 215 217 224 229 232 236 240 178 200 132
  63  58 197 179 254 253 183 143 154 136 112 144 171 174 177 179 135  45 180 135  45   9   9   8   7   7   7   7  45 116 120 125 140  88 112  98  81 110 135 117  67 166 124 176  76 183 230 181  96  66  68  98 177 215 217 224 229 232 235 241 217  96 175 132
  67  61 195 179 254 253 224 177 189 160 128 156 190 145 177 178 180 135 180  47  14  14  14  14  14  14  14  14  14  47 112 153 148  74  83  94 123 119  67  24  46 164 125 180 184 230 181  95  65  68  99 177 215 217 224 229 232 236 241 248 222  62 151 122
  79  70 160  89 224 253 225 183 161 137 100 125 172 143 203 209 211 243 212 164 164 164 164 164 164 164 164 164 164 164 171 172 174 169 169 168 167 172 164 166 172 178 155 205 230 180  95  65  69 100 177 215 216 224 228 232 236 241 248 189 200 111 166 111
 105  83 181 179 253 190 127 190 223 159  64 102 157 154 166 160 158 188 160 139 131 131 131 131 131 131 131 131 131 131 131 131 131 131 131 131 131 159 131 134 146 158 207 219 180  95  65  70 100 178 215 217 224 229 232 235 241 247 189  63 182 132 176  85
 133  49 104 148 190 127 190 253 253 199 179 161  69 105 164 195 217 192 216 216 174 173 173 166 166 166 166 166 166 166 166 166 166 166 166 166 166 173 167 169 178 177 209 171  94  65  71 101 178 215 216 224 229 232 235 240 247 189  63  63 171 135 155  53
 175  97  71 117 127 162 224 190 142 100 190 221 175 194 161 101 180 134 180 180 135 134 135  45   1   1   1   1   1   1   1   1   1   1   1   1   1   2   4  22  54 102 162  85  66  71 102 178 215 217 223 228 232 235 240 247 189  63   0 142 139 162 140  98
 182 119  77 140 191 224 190 127 162 224 190 161 190 223 221 195 219 249 249 219 249 249 249 194 172 172 172 172 172 172 172 172 172 172 172 172 172 173 173 175 183 144 127  53  71 103 179 215 216 223 228 232 235 240 247 189  63   0  62 180 116 134 102  95
 155 127  93  94 166 170 201 225 224 190 126 162 254 190 142 100 162 190 201 162 191 201 201  63   0   0   0   0   0   0   0   0   0   0   0   0  45 135 135  51  70  98  87  61 104 180 215 216 223 228 232 235 240 247 189  63  64 141 186 140  96 103  84  97
  42 120 107  53 122 110 134 223 224 185 225 200 254 201 201 224 200 201 225 162 162 225 142   0   0   0   0   0   0   0   0   0   0   0   0   0  44  90  45  51 140 143  79 102 181 213 214 223 228 232 235 240 247 189 127 141 166 139 138 133  57  86  58   9
  63 143 135  46  61 137 148 167  82  37 184 160 251 220 220 220 181 221 251 251 221 252 182 176 176 176 176 176 176 176 176 176 176 176 176 176 176 176 177 135  71  61 102 182 210 205 214 225 230 232 237 243 249 181 171 128  96 152 122 143  33 110 111  49
  85  79 134 136 120 155 136 138 133 146 207 165 198 189 185  84  81 165 165 204 204 204 106  96  96  96  96  96  96  96  96  96  96  96  96  96  96  96  94  91 117 104 159 184 160 147 166 143 146 149 157 166 175 119 163 156 127  97  79 159  98  67  14   6
  42 142 157 134 138 206 201  84  96 125 180 215 215 206 207 126 130 142 141 224 224 224 190 140 133 133 140 139 132 132 132 132 132 132 133 133 140 132 131 123 144 121 142 179 177 174 161 124 128 132 140 146 150 152 180 141 166 143 143 103 123 109  49   4
   0 131  86  36 109 136 154 146 181 139  72 172 170 170 179  61  48  61  56 182 183 183 182  95  31  54 138 138  30  30  30  30  30  30  30  31  95  31  30  30  54  55  57 139 134 133  77  57  42  34  34  34  29 153 208 222 188  73  55  82 103   4   6   0
   0  43  87  43  37 103 145 138  98 136 176 248 215 179 178  46  65 190 222 251 252 252 222 198 182 198 252 252 176 176 176 176 176 176 176 176 182 176 176 176 176 176 176 182 140  64   5  48 134 177 176 177 177 249 206 123  76  76  90  99  46   6   4   0
   0   0  43  87   2  80 118 133 106  65  52 176 174 179 137  93 137 182 137 137 138 138  53  94  94  53 138 138  30  30  30  30  30  30  30  29  29  29  29  28  28  28  27  27  27  27  27  27  26  25  23  21  19 135 128  71  94  51 101  43   5   2   0   0
   0   0   0  43   2  90  41  40  51  97  93 135 136 140  61  61 141 142  62  62  62  63  44  63  63  45  64  64  45  45  45  45  45  45  45  45  45  45  44  44  44  43  43  43  42  42  42  41  41  40  37  33  31  57  97  34 100   5  45   3   2   0   0   0
   0   0   0   0   0  44   1   1   0  44  43  44  45  46  12  12  46  46  12  12  12  12  12  12  12  12  12  12  12  12  12  12  12  12  12  12  12  12  12  12  12  12  12  12  12  12  12  12  12  11  11  10   8   5  91   0  44   2   1   0   0   0   0   0
